ModelForces
version=1
nRows=4
nColumns=206
inDegrees=no

This file contains the forces exerted on a model during a simulation.

A force is a generalized force, meaning that it can be either a force (N) or a torque (Nm).

Units are S.I. units (second, meters, Newtons, ...)
Angles are in degrees.

endheader
time	glut_med1_r	glut_med2_r	glut_med3_r	glut_min1_r	glut_min2_r	glut_min3_r	semimem_r	semiten_r	bifemlh_r	bifemsh_r	sar_r	add_long_r	add_brev_r	add_mag1_r	add_mag2_r	add_mag3_r	tfl_r	pect_r	grac_r	glut_max1_r	glut_max2_r	glut_max3_r	iliacus_r	psoas_r	quad_fem_r	gem_r	peri_r	rect_fem_r	vas_med_r	vas_int_r	vas_lat_r	med_gas_r	lat_gas_r	soleus_r	tib_post_r	flex_dig_r	flex_hal_r	tib_ant_r	per_brev_r	per_long_r	per_tert_r	ext_dig_r	ext_hal_r	glut_med1_l	glut_med2_l	glut_med3_l	glut_min1_l	glut_min2_l	glut_min3_l	semimem_l	semiten_l	bifemlh_l	bifemsh_l	sar_l	add_long_l	add_brev_l	add_mag1_l	add_mag2_l	add_mag3_l	tfl_l	pect_l	grac_l	glut_max1_l	glut_max2_l	glut_max3_l	iliacus_l	psoas_l	quad_fem_l	gem_l	peri_l	rect_fem_l	vas_med_l	vas_int_l	vas_lat_l	med_gas_l	lat_gas_l	soleus_l	tib_post_l	flex_dig_l	flex_hal_l	tib_ant_l	per_brev_l	per_long_l	per_tert_l	ext_dig_l	ext_hal_l	ercspn_r	ercspn_l	intobl_r	intobl_l	extobl_r	extobl_l	femur_lat_meniscii_l.femur_lat_l.force.X	femur_lat_meniscii_l.femur_lat_l.force.Y	femur_lat_meniscii_l.femur_lat_l.force.Z	femur_lat_meniscii_l.femur_lat_l.torque.X	femur_lat_meniscii_l.femur_lat_l.torque.Y	femur_lat_meniscii_l.femur_lat_l.torque.Z	femur_lat_meniscii_l.meniscus_lat_l.force.X	femur_lat_meniscii_l.meniscus_lat_l.force.Y	femur_lat_meniscii_l.meniscus_lat_l.force.Z	femur_lat_meniscii_l.meniscus_lat_l.torque.X	femur_lat_meniscii_l.meniscus_lat_l.torque.Y	femur_lat_meniscii_l.meniscus_lat_l.torque.Z	femur_med_meniscii_l.femur_med_l.force.X	femur_med_meniscii_l.femur_med_l.force.Y	femur_med_meniscii_l.femur_med_l.force.Z	femur_med_meniscii_l.femur_med_l.torque.X	femur_med_meniscii_l.femur_med_l.torque.Y	femur_med_meniscii_l.femur_med_l.torque.Z	femur_med_meniscii_l.meniscus_med_l.force.X	femur_med_meniscii_l.meniscus_med_l.force.Y	femur_med_meniscii_l.meniscus_med_l.force.Z	femur_med_meniscii_l.meniscus_med_l.torque.X	femur_med_meniscii_l.meniscus_med_l.torque.Y	femur_med_meniscii_l.meniscus_med_l.torque.Z	femur_lat_meniscii_r.femur_lat_r.force.X	femur_lat_meniscii_r.femur_lat_r.force.Y	femur_lat_meniscii_r.femur_lat_r.force.Z	femur_lat_meniscii_r.femur_lat_r.torque.X	femur_lat_meniscii_r.femur_lat_r.torque.Y	femur_lat_meniscii_r.femur_lat_r.torque.Z	femur_lat_meniscii_r.meniscus_lat_r.force.X	femur_lat_meniscii_r.meniscus_lat_r.force.Y	femur_lat_meniscii_r.meniscus_lat_r.force.Z	femur_lat_meniscii_r.meniscus_lat_r.torque.X	femur_lat_meniscii_r.meniscus_lat_r.torque.Y	femur_lat_meniscii_r.meniscus_lat_r.torque.Z	femur_med_meniscii_r.femur_med_r.force.X	femur_med_meniscii_r.femur_med_r.force.Y	femur_med_meniscii_r.femur_med_r.force.Z	femur_med_meniscii_r.femur_med_r.torque.X	femur_med_meniscii_r.femur_med_r.torque.Y	femur_med_meniscii_r.femur_med_r.torque.Z	femur_med_meniscii_r.meniscus_med_r.force.X	femur_med_meniscii_r.meniscus_med_r.force.Y	femur_med_meniscii_r.meniscus_med_r.force.Z	femur_med_meniscii_r.meniscus_med_r.torque.X	femur_med_meniscii_r.meniscus_med_r.torque.Y	femur_med_meniscii_r.meniscus_med_r.torque.Z	femur_med_tibia_l.tibia_upper_l.force.X	femur_med_tibia_l.tibia_upper_l.force.Y	femur_med_tibia_l.tibia_upper_l.force.Z	femur_med_tibia_l.tibia_upper_l.torque.X	femur_med_tibia_l.tibia_upper_l.torque.Y	femur_med_tibia_l.tibia_upper_l.torque.Z	femur_med_tibia_l.femur_med_l.force.X	femur_med_tibia_l.femur_med_l.force.Y	femur_med_tibia_l.femur_med_l.force.Z	femur_med_tibia_l.femur_med_l.torque.X	femur_med_tibia_l.femur_med_l.torque.Y	femur_med_tibia_l.femur_med_l.torque.Z	femur_lat_tibia_l.tibia_upper_l.force.X	femur_lat_tibia_l.tibia_upper_l.force.Y	femur_lat_tibia_l.tibia_upper_l.force.Z	femur_lat_tibia_l.tibia_upper_l.torque.X	femur_lat_tibia_l.tibia_upper_l.torque.Y	femur_lat_tibia_l.tibia_upper_l.torque.Z	femur_lat_tibia_l.femur_lat_l.force.X	femur_lat_tibia_l.femur_lat_l.force.Y	femur_lat_tibia_l.femur_lat_l.force.Z	femur_lat_tibia_l.femur_lat_l.torque.X	femur_lat_tibia_l.femur_lat_l.torque.Y	femur_lat_tibia_l.femur_lat_l.torque.Z	femur_med_tibia_r.tibia_upper_r.force.X	femur_med_tibia_r.tibia_upper_r.force.Y	femur_med_tibia_r.tibia_upper_r.force.Z	femur_med_tibia_r.tibia_upper_r.torque.X	femur_med_tibia_r.tibia_upper_r.torque.Y	femur_med_tibia_r.tibia_upper_r.torque.Z	femur_med_tibia_r.femur_med_r.force.X	femur_med_tibia_r.femur_med_r.force.Y	femur_med_tibia_r.femur_med_r.force.Z	femur_med_tibia_r.femur_med_r.torque.X	femur_med_tibia_r.femur_med_r.torque.Y	femur_med_tibia_r.femur_med_r.torque.Z	femur_lat_tibia_r.tibia_upper_r.force.X	femur_lat_tibia_r.tibia_upper_r.force.Y	femur_lat_tibia_r.tibia_upper_r.force.Z	femur_lat_tibia_r.tibia_upper_r.torque.X	femur_lat_tibia_r.tibia_upper_r.torque.Y	femur_lat_tibia_r.tibia_upper_r.torque.Z	femur_lat_tibia_r.femur_lat_r.force.X	femur_lat_tibia_r.femur_lat_r.force.Y	femur_lat_tibia_r.femur_lat_r.force.Z	femur_lat_tibia_r.femur_lat_r.torque.X	femur_lat_tibia_r.femur_lat_r.torque.Y	femur_lat_tibia_r.femur_lat_r.torque.Z	aACL_R	pACL_R	aPCL_R	pPCL_R	aMCL_R	mMCL_R	pMCL_R	aLCL_R	mLCL_R	pLCL_R	aPCL_L	pPCL_L	aMCL_L	aLCL_L	ground_prescribedForce_-20_fx	ground_prescribedForce_-20_fy	ground_prescribedForce_-20_fz
      0.36141709	      7.84694664	      5.87156052	      6.28780191	      2.75135066	      3.27895425	      3.31894894	      9.61773694	      5.18528880	      6.12877103	      6.92018988	      0.00000000	      5.81960813	      4.28365965	      3.02417134	      2.54434643	      4.15079751	      4.16170603	      2.31702826	      1.88427337	      3.78878979	      5.75830967	      4.30124691	     23.02096043	     13.38710506	      3.75551863	      2.91472935	      4.32617544	     13.45363025	     12.28924898	     10.79567104	     10.70173617	      3.22899528	      1.48114263	     10.00778834	     11.94191745	      2.58407342	      2.69519747	     13.05286361	      3.60063938	      7.18615655	      9.11595091	      6.79614030	      1.77055574	      7.84694664	      5.87156052	      6.28780191	      2.75135066	      3.27895425	      3.31894894	      9.17934261	      4.24341139	      8.04468340	      7.47254681	      1.57231855	      5.81960813	      4.28365965	      3.02417134	      2.54434643	      4.15079751	      4.19809397	      2.31702826	      1.61357862	      3.78878979	      5.75830967	      4.30124691	     23.02096043	     13.38710506	      3.75551863	      2.91472935	      4.32617544	     11.15983272	      6.83779890	      7.84902561	      8.43826856	     14.96254046	      6.94811090	     32.87894682	     43.06653946	      2.96040284	      3.10160619	      8.82285342	      4.55527670	     12.96680721	      2.07104983	      5.52320098	      1.74961639	     25.87774339	     25.87774339	      9.34209312	      9.34209312	     27.11190916	     27.11190916	      2.76307435	     50.99597937	     -9.56042239	      5.21997485	     -0.02578839	      1.48581788	     -2.76307435	    -50.99597937	      9.56042239	     -1.74637766	      0.02558040	     -0.48301696	     -3.31599387	     20.97615968	     -3.40468921	      0.94473225	     -0.02138609	     -1.00501789	      3.31599387	    -20.97615968	      3.40468921	      0.28075727	      0.00368718	     -0.29758878	     27.17574676	     36.88506743	     -1.22376947	     -0.44220942	      0.69782546	     11.21172394	    -27.17574676	    -36.88506743	      1.22376947	      1.13627107	     -0.85192754	     -0.44370055	     83.90144066	     74.75046265	     -1.85191500	      2.29878067	     -1.72978740	     34.86682635	    -83.90144066	    -74.75046265	      1.85191500	     -1.13369676	      1.23727697	     -1.96205724	      0.00000000	      0.00000000	      0.00000000	      0.00000000	      0.00000000	      0.00000000	      0.00000000	      0.00000000	      0.00000000	      0.00000000	      0.00000000	      0.00000000	      0.00000000	      0.00000000	      0.00000000	      0.00000000	      0.00000000	      0.00000000	      0.00000000	      0.00000000	      0.00000000	      0.00000000	      0.00000000	      0.00000000	      0.00000000	      0.00000000	      0.00000000	      0.00000000	      0.00000000	      0.00000000	      0.00000000	      0.00000000	      0.00000000	      0.00000000	      0.00000000	      0.00000000	      0.00000000	      0.00000000	      0.00000000	      0.00000000	      0.00000000	      0.00000000	      0.00000000	      0.00000000	      0.00000000	      0.00000000	      0.00000000	      0.00000000	     16.17563975	      5.72260807	      0.00000000	      0.00000000	      0.00000000	     17.75133322	     30.83855240	      0.00000000	      0.00000000	      0.00000000	      0.00000000	      0.00000000	      0.00000001	      0.00000000	    103.36618800	    -37.62220000	      0.00000000
      0.36378248	      7.83787548	      5.86532317	      6.28103933	      2.74855196	      3.27592395	      3.31512028	      9.63061135	      5.18464199	      6.11705192	      6.93292503	      0.00000000	      5.81335357	      4.27934196	      3.02098165	      2.54159868	      4.14584018	      4.15763564	      2.31465623	      1.88768311	      3.78476679	      5.75217702	      4.29658254	     23.00963792	     13.37434532	      3.75161514	      2.91289496	      4.31915858	     13.45096705	     12.32108035	     10.82192146	     10.71965783	      3.21630532	      1.46936470	      9.94718974	     11.88302337	      2.58881869	      2.74876388	     13.04060948	      3.61105846	      7.19541236	      9.14400515	      6.75730994	      1.72367384	      7.83787548	      5.86532317	      6.28103933	      2.74855196	      3.27592395	      3.31512028	      9.16622960	      4.23855241	      8.03373140	      7.46477478	      1.57072650	      5.81335357	      4.27934196	      3.02098165	      2.54159868	      4.14584018	      4.19502464	      2.31465623	      1.61191635	      3.78476679	      5.75217702	      4.29658254	     23.00963792	     13.37434532	      3.75161514	      2.91289496	      4.31915858	     11.14491192	      6.83036441	      7.84032760	      8.42896223	     14.93386277	      6.93477911	     32.82564516	     43.04531077	      2.95453776	      3.09637647	      8.81160209	      4.54861089	     12.95155481	      2.06907236	      5.51522703	      1.74728038	     25.85136030	     25.85136030	      9.33172346	      9.33172346	     27.10259342	     27.10259342	      2.76307435	     50.99597937	     -9.56042239	      5.21997485	     -0.02578839	      1.48581788	     -2.76307435	    -50.99597937	      9.56042239	     -1.74637766	      0.02558040	     -0.48301696	     -3.31599387	     20.97615968	     -3.40468921	      0.94473225	     -0.02138609	     -1.00501789	      3.31599387	    -20.97615968	      3.40468921	      0.28075727	      0.00368718	     -0.29758878	     27.20657585	     37.51236786	     -1.37326866	     -0.39756898	      0.69914841	     11.22674765	    -27.20657585	    -37.51236786	      1.37326866	      1.15375036	     -0.85268666	     -0.43969385	     83.70899247	     75.02346272	     -2.11264903	      2.41345366	     -1.72419455	     34.78848908	    -83.70899247	    -75.02346272	      2.11264903	     -1.14480466	      1.23336443	     -1.95125270	      0.00000000	      0.00000000	      0.00000000	      0.00000000	      0.00000000	      0.00000000	      0.00000000	      0.00000000	      0.00000000	      0.00000000	      0.00000000	      0.00000000	      0.00000000	      0.00000000	      0.00000000	      0.00000000	      0.00000000	      0.00000000	      0.00000000	      0.00000000	      0.00000000	      0.00000000	      0.00000000	      0.00000000	      0.00000000	      0.00000000	      0.00000000	      0.00000000	      0.00000000	      0.00000000	      0.00000000	      0.00000000	      0.00000000	      0.00000000	      0.00000000	      0.00000000	      0.00000000	      0.00000000	      0.00000000	      0.00000000	      0.00000000	      0.00000000	      0.00000000	      0.00000000	      0.00000000	      0.00000000	      0.00000000	      0.00000000	     16.30277187	      5.77909881	      0.00000000	      0.00000000	      0.00000000	     18.13153000	     31.35721630	      0.00000000	      0.00000000	      0.00000000	      0.00000000	      0.00000000	      0.00000001	      0.00000000	    103.36618800	    -37.62220000	      0.00000000
      0.36754115	      7.82402105	      5.85579608	      6.27071017	      2.74427696	      3.27129531	      3.30927271	      9.64793793	      5.18185008	      6.10261750	      6.92936254	      0.00000000	      5.80380036	      4.27274686	      3.01610964	      2.53740185	      4.13826898	      4.15130596	      2.31103297	      1.88759705	      3.77862206	      5.74281002	      4.28945832	     22.99234448	     13.35485850	      3.74565269	      2.91009347	      4.30842783	     13.45034563	     12.34648993	     10.85359652	     10.73697548	      3.19341428	      1.45124484	      9.84836200	     11.78982007	      2.59194777	      2.82838918	     13.02718307	      3.62239536	      7.20631034	      9.18571952	      6.71719323	      1.65417205	      7.82402105	      5.85579608	      6.27071017	      2.74427696	      3.27129531	      3.30927271	      9.14619559	      4.23113121	      8.01700150	      7.45290329	      1.56829464	      5.80380036	      4.27274686	      3.01610964	      2.53740185	      4.13826898	      4.19033711	      2.31103297	      1.60937725	      3.77862206	      5.74281002	      4.28945832	     22.99234448	     13.35485850	      3.74565269	      2.91009347	      4.30842783	     11.12212040	      6.81900948	      7.82704314	      8.41474879	     14.88991294	      6.91434743	     32.74413656	     43.01286790	      2.94547700	      3.08833797	      8.79441725	      4.53842529	     12.92821556	      2.06605222	      5.50312061	      1.74373503	     25.81106015	     25.81106015	      9.31588532	      9.31588532	     27.08836510	     27.08836510	      2.76307435	     50.99597937	     -9.56042239	      5.21997485	     -0.02578839	      1.48581788	     -2.76307435	    -50.99597937	      9.56042239	     -1.74637766	      0.02558040	     -0.48301696	     -3.31599387	     20.97615968	     -3.40468921	      0.94473225	     -0.02138609	     -1.00501789	      3.31599387	    -20.97615968	      3.40468921	      0.28075727	      0.00368718	     -0.29758878	     27.30041767	     38.51046823	     -1.56366114	     -0.34650588	      0.70282919	     11.26998347	    -27.30041767	    -38.51046823	      1.56366114	      1.18331102	     -0.85612347	     -0.43535013	     83.59469109	     75.15038580	     -2.17881626	      2.44133071	     -1.71862427	     34.74509135	    -83.59469109	    -75.15038580	      2.17881626	     -1.14386049	      1.22635143	     -1.94419401	      0.00000000	      0.00000000	      0.00000000	      0.00000000	      0.00000000	      0.00000000	      0.00000000	      0.00000000	      0.00000000	      0.00000000	      0.00000000	      0.00000000	      0.00000000	      0.00000000	      0.00000000	      0.00000000	      0.00000000	      0.00000000	      0.00000000	      0.00000000	      0.00000000	      0.00000000	      0.00000000	      0.00000000	      0.00000000	      0.00000000	      0.00000000	      0.00000000	      0.00000000	      0.00000000	      0.00000000	      0.00000000	      0.00000000	      0.00000000	      0.00000000	      0.00000000	      0.00000000	      0.00000000	      0.00000000	      0.00000000	      0.00000000	      0.00000000	      0.00000000	      0.00000000	      0.00000000	      0.00000000	      0.00000000	      0.00000000	     16.41965306	      5.76416262	      0.00000000	      0.00000000	      0.00000000	     18.67180590	     32.12525344	      0.00000000	      0.00000000	      0.00000000	      0.00000000	      0.00000000	      0.00000001	      0.00000000	    103.36618800	    -37.62220000	      0.00000000
      0.36839519	      7.82096602	      5.85369514	      6.26843239	      2.74333416	      3.27027458	      3.30798326	      9.65070637	      5.18060506	      6.09945933	      6.92638749	      0.73016228	      5.80169370	      4.27129217	      3.01503526	      2.53647637	      4.13659949	      4.14967081	      2.31023392	      1.88718667	      3.77726703	      5.74074441	      4.28788732	     22.98853104	     13.35056167	      3.74433780	      2.90947575	      4.30605931	     13.44969666	     12.34845685	     10.85732444	     10.73764182	      3.18698446	      1.44681222	      9.82480851	     11.76920731	      2.59189823	      2.84544753	     13.02545324	      3.62382219	      7.20773106	      9.19525174	      6.71225045	      1.63982927	      7.82096602	      5.85369514	      6.26843239	      2.74333416	      3.27027458	      3.30798326	      9.14177685	      4.22949476	      8.01331194	      7.45028531	      1.56775831	      5.80169370	      4.27129217	      3.01503526	      2.53647637	      4.13659949	      4.18930351	      2.31023392	      1.60881730	      3.77726703	      5.74074441	      4.28788732	     22.98853104	     13.35056167	      3.74433780	      2.90947575	      4.30605931	     11.11709419	      6.81650558	      7.82411380	      8.41161462	     14.88019653	      6.90983039	     32.72614653	     43.00571060	      2.94346198	      3.08655711	      8.79062773	      4.53617848	     12.92306169	      2.06538626	      5.50046241	      1.74295671	     25.80217256	     25.80217256	      9.31239278	      9.31239278	     27.08522757	     27.08522757	      2.76307435	     50.99597937	     -9.56042239	      5.21997485	     -0.02578839	      1.48581788	     -2.76307435	    -50.99597937	      9.56042239	     -1.74637766	      0.02558040	     -0.48301696	     -3.31599387	     20.97615968	     -3.40468921	      0.94473225	     -0.02138609	     -1.00501789	      3.31599387	    -20.97615968	      3.40468921	      0.28075727	      0.00368718	     -0.29758878	     27.31835348	     38.76412380	     -1.59254931	     -0.34160359	      0.70369492	     11.27829236	    -27.31835348	    -38.76412380	      1.59254931	      1.19136952	     -0.85703201	     -0.43390089	     83.44129926	     75.11298384	     -2.23841876	      2.46564750	     -1.71412557	     34.68198758	    -83.44129926	    -75.11298384	      2.23841876	     -1.14491117	      1.22271563	     -1.93892355	      0.00000000	      0.00000000	      0.00000000	      0.00000000	      0.00000000	      0.00000000	      0.00000000	      0.00000000	      0.00000000	      0.00000000	      0.00000000	      0.00000000	      0.00000000	      0.00000000	      0.00000000	      0.00000000	      0.00000000	      0.00000000	      0.00000000	      0.00000000	      0.00000000	      0.00000000	      0.00000000	      0.00000000	      0.00000000	      0.00000000	      0.00000000	      0.00000000	      0.00000000	      0.00000000	      0.00000000	      0.00000000	      0.00000000	      0.00000000	      0.00000000	      0.00000000	      0.00000000	      0.00000000	      0.00000000	      0.00000000	      0.00000000	      0.00000000	      0.00000000	      0.00000000	      0.00000000	      0.00000000	      0.00000000	      0.00000000	     16.41595954	      5.72667907	      0.00000000	      0.00000000	      0.00000000	     18.74386963	     32.25064421	      0.00000000	      0.00000000	      0.00000000	      0.00000000	      0.00000000	      0.00000001	      0.00000000	    103.36618800	    -37.62220000	      0.00000000
